{
  "accessors": [
    {
      "bufferView": 2,
      "componentType": 5126,
      "count": 44440,
      "max": [
        0.8409228324890137,
        2.566593647003174,
        0.583634614944458
      ],
      "min": [
        -0.7945430278778076,
        0.04044294357299805,
        -0.6485803723335266
      ],
      "type": "VEC3"
    },
    {
      "bufferView": 2,
      "byteOffset": 533280,
      "componentType": 5126,
      "count": 44440,
      "max": [
        0.9999414086341858,
        0.9997256398200989,
        0.9998137950897217
      ],
      "min": [
        -0.9999951124191284,
        -1.0,
        -0.9997227787971497
      ],
      "type": "VEC3"
    },
    {
      "bufferView": 1,
      "componentType": 5126,
      "count": 44440,
      "max": [
        0.0,
        0.0
      ],
      "min": [
        0.0,
        0.0
      ],
      "type": "VEC2"
    },
    {
      "bufferView": 0,
      "componentType": 5125,
      "count": 265728,
      "type": "SCALAR"
    },
    {
      "bufferView": 2,
      "byteOffset": 1066560,
      "componentType": 5126,
      "count": 2113,
      "max": [
        0.5520883202552795,
        2.249225616455078,
        0.604426383972168
      ],
      "min": [
        -0.5117416977882385,
        1.6145867109298706,
        0.24658779799938202
      ],
      "type": "VEC3"
    },
    {
      "bufferView": 2,
      "byteOffset": 1091916,
      "componentType": 5126,
      "count": 2113,
      "max": [
        0.9405308961868286,
        0.9844265580177307,
        0.999583899974823
      ],
      "min": [
        -0.9092711210250854,
        -0.7016690373420715,
        -0.2885269522666931
      ],
      "type": "VEC3"
    },
    {
      "bufferView": 0,
      "byteOffset": 1062912,
      "componentType": 5125,
      "count": 12288,
      "type": "SCALAR"
    },
    {
      "bufferView": 2,
      "byteOffset": 1117272,
      "componentType": 5126,
      "count": 1152,
      "max": [
        0.5949346423149109,
        2.2807259559631348,
        0.548738420009613
      ],
      "min": [
        -0.5497622489929199,
        1.5832884311676025,
        0.2110486477613449
      ],
      "type": "VEC3"
    },
    {
      "bufferView": 2,
      "byteOffset": 1131096,
      "componentType": 5126,
      "count": 1152,
      "max": [
        0.9405308961868286,
        0.9844265580177307,
        0.9994350075721741
      ],
      "min": [
        -0.9092711210250854,
        -0.7016690373420715,
        -0.35389745235443115
      ],
      "type": "VEC3"
    },
    {
      "bufferView": 0,
      "byteOffset": 1112064,
      "componentType": 5125,
      "count": 6144,
      "type": "SCALAR"
    },
    {
      "bufferView": 2,
      "byteOffset": 1144920,
      "componentType": 5126,
      "count": 1584,
      "max": [
        0.6597208976745605,
        2.270510196685791,
        -0.3964177370071411
      ],
      "min": [
        -0.5766100287437439,
        0.9731347560882568,
        -0.6680915951728821
      ],
      "type": "VEC3"
    },
    {
      "bufferView": 2,
      "byteOffset": 1163928,
      "componentType": 5126,
      "count": 1584,
      "max": [
        0.9832021594047546,
        0.9572461247444153,
        -0.18155531585216522
      ],
      "min": [
        -0.9566003680229187,
        -0.9533754587173462,
        -0.9994396567344666
      ],
      "type": "VEC3"
    },
    {
      "bufferView": 0,
      "byteOffset": 1136640,
      "componentType": 5125,
      "count": 8448,
      "type": "SCALAR"
    },
    {
      "bufferView": 2,
      "byteOffset": 1182936,
      "componentType": 5126,
      "count": 4697,
      "max": [
        0.6238019466400146,
        2.2205772399902344,
        -0.45771321654319763
      ],
      "min": [
        -0.5337055325508118,
        1.002888560295105,
        -0.899867057800293
      ],
      "type": "VEC3"
    },
    {
      "bufferView": 2,
      "byteOffset": 1239300,
      "componentType": 5126,
      "count": 4697,
      "max": [
        0.9867864847183228,
        0.9908018708229065,
        -0.05734482780098915
      ],
      "min": [
        -0.9700978994369507,
        -0.964309811592102,
        -0.9999145865440369
      ],
      "type": "VEC3"
    },
    {
      "bufferView": 1,
      "byteOffset": 355520,
      "componentType": 5126,
      "count": 4697,
      "max": [
        0.0,
        0.0
      ],
      "min": [
        0.0,
        0.0
      ],
      "type": "VEC2"
    },
    {
      "bufferView": 0,
      "byteOffset": 1170432,
      "componentType": 5125,
      "count": 27648,
      "type": "SCALAR"
    }
  ],
  "asset": {
    "extras": {
      "author": "Lucasio UwU (https://sketchfab.com/babacetadeo88)",
      "license": "CC-BY-4.0 (http://creativecommons.org/licenses/by/4.0/)",
      "source": "https://sketchfab.com/3d-models/among-us-e3f04536371641e68aa4997d530d5ba0",
      "title": "Among-Us"
    },
    "generator": "Sketchfab-15.1.0",
    "version": "2.0"
  },
  "bufferViews": [
    {
      "buffer": 0,
      "byteLength": 1281024,
      "name": "floatBufferViews",
      "target": 34963
    },
    {
      "buffer": 0,
      "byteLength": 393096,
      "byteOffset": 1281024,
      "byteStride": 8,
      "name": "floatBufferViews",
      "target": 34962
    },
    {
      "buffer": 0,
      "byteLength": 1295664,
      "byteOffset": 1674120,
      "byteStride": 12,
      "name": "floatBufferViews",
      "target": 34962
    }
  ],
  "buffers": [
    {
      "byteLength": 2969784,
      "uri": "scene.bin"
    }
  ],
  "extensionsUsed": [
    "KHR_materials_specular",
    "KHR_materials_transmission"
  ],
  "images": [
    {
      "uri": "textures/Material_baseColor.jpeg"
    }
  ],
  "materials": [
    {
      "doubleSided": true,
      "extensions": {
        "KHR_materials_specular": {
          "specularColorFactor": [
            1.0,
            1.0,
            1.0
          ],
          "specularFactor": 1.0
        }
      },
      "name": "Material",
      "pbrMetallicRoughness": {
        "baseColorTexture": {
          "index": 0
        },
        "metallicFactor": 0.2844155803320067,
        "roughnessFactor": 0.3575015545583091
      }
    },
    {
      "alphaMode": "BLEND",
      "doubleSided": true,
      "extensions": {
        "KHR_materials_specular": {
          "specularColorFactor": [
            1.0,
            1.0,
            1.0
          ],
          "specularFactor": 1.0
        },
        "KHR_materials_transmission": {
          "transmissionFactor": 0.45978350987593486
        }
      },
      "name": "Material_002",
      "pbrMetallicRoughness": {
        "baseColorFactor": [
          0.1734860000000002,
          0.22990300000000008,
          0.45753199999999966,
          0.5402164901240651
        ],
        "roughnessFactor": 0.0923077
      }
    },
    {
      "doubleSided": true,
      "name": "Material_003",
      "pbrMetallicRoughness": {
        "baseColorFactor": [
          0.0,
          0.0,
          0.0,
          1.0
        ],
        "roughnessFactor": 0.0
      }
    },
    {
      "doubleSided": true,
      "extensions": {
        "KHR_materials_specular": {
          "specularColorFactor": [
            1.0,
            1.0,
            1.0
          ],
          "specularFactor": 1.0
        }
      },
      "name": "Material_001",
      "pbrMetallicRoughness": {
        "baseColorFactor": [
          0.0,
          0.0,
          0.0,
          1.0
        ],
        "roughnessFactor": 0.21742007295581756
      }
    },
    {
      "doubleSided": true,
      "name": "Material_004",
      "pbrMetallicRoughness": {
        "baseColorTexture": {
          "index": 0
        },
        "metallicFactor": 0.29050604718212,
        "roughnessFactor": 0.3087775872418135
      }
    }
  ],
  "meshes": [
    {
      "name": "Object_0",
      "primitives": [
        {
          "attributes": {
            "NORMAL": 1,
            "POSITION": 0,
            "TEXCOORD_0": 2
          },
          "indices": 3,
          "material": 0,
          "mode": 4
        }
      ]
    },
    {
      "name": "Object_1",
      "primitives": [
        {
          "attributes": {
            "NORMAL": 5,
            "POSITION": 4
          },
          "indices": 6,
          "material": 1,
          "mode": 4
        }
      ]
    },
    {
      "name": "Object_2",
      "primitives": [
        {
          "attributes": {
            "NORMAL": 8,
            "POSITION": 7
          },
          "indices": 9,
          "material": 2,
          "mode": 4
        }
      ]
    },
    {
      "name": "Object_3",
      "primitives": [
        {
          "attributes": {
            "NORMAL": 11,
            "POSITION": 10
          },
          "indices": 12,
          "material": 3,
          "mode": 4
        }
      ]
    },
    {
      "name": "Object_4",
      "primitives": [
        {
          "attributes": {
            "NORMAL": 14,
            "POSITION": 13,
            "TEXCOORD_0": 15
          },
          "indices": 16,
          "material": 4,
          "mode": 4
        }
      ]
    }
  ],
  "nodes": [
    {
      "children": [
        1
      ],
      "matrix": [
        1.0,
        0.0,
        0.0,
        0.0,
        0.0,
        2.220446049250313e-16,
        -1.0,
        0.0,
        0.0,
        1.0,
        2.220446049250313e-16,
        0.0,
        0.0,
        0.0,
        0.0,
        1.0
      ],
      "name": "Sketchfab_model"
    },
    {
      "children": [
        2,
        3,
        4,
        5,
        6
      ],
      "matrix": [
        0.009999999776482582,
        0.0,
        0.0,
        0.0,
        0.0,
        2.2204459996194763e-18,
        0.009999999776482582,
        0.0,
        0.0,
        -0.009999999776482582,
        2.2204459996194763e-18,
        0.0,
        0.0,
        0.0,
        0.0,
        1.0
      ],
      "name": "USDRoot"
    },
    {
      "mesh": 0,
      "name": "Object_0"
    },
    {
      "mesh": 1,
      "name": "Object_1"
    },
    {
      "mesh": 2,
      "name": "Object_2"
    },
    {
      "mesh": 3,
      "name": "Object_3"
    },
    {
      "mesh": 4,
      "name": "Object_4"
    }
  ],
  "samplers": [
    {
      "magFilter": 9729,
      "minFilter": 9987,
      "wrapS": 10497,
      "wrapT": 10497
    }
  ],
  "scene": 0,
  "scenes": [
    {
      "name": "Sketchfab_Scene",
      "nodes": [
        0
      ]
    }
  ],
  "textures": [
    {
      "sampler": 0,
      "source": 0
    }
  ]
}
